<?xml version="1.0" encoding="utf-8"?>
<!-- Generator: Adobe Illustrator 22.0.0, SVG Export Plug-In . SVG Version: 6.00 Build 0)  -->
<svg version="1.1" id="Layer_1" xmlns="http://www.w3.org/2000/svg" xmlns:xlink="http://www.w3.org/1999/xlink" x="0px" y="0px"
	 viewBox="0 0 300 90" style="enable-background:new 0 0 300 90;" xml:space="preserve">
<style type="text/css">
	.st0{fill:#FFB932;}
	.st1{fill:#FFFFFF;}
	.st2{fill:none;}
</style>
<g>
	<path class="st0" d="M242.8,14.3c0,4.8-2.4,9-6,11.5c-0.1,0-0.1,0.1-0.2,0.1c-2,1.3-4.3,2.2-6.9,2.3c-0.3,0-0.6,0-0.9,0
		c-5.6,0-10.5-3.3-12.7-8.1c-0.8-1.8-1.3-3.8-1.3-5.9c0-2,0.4-4,1.2-5.7c1-2.3,2.7-4.3,4.8-5.8c2.3-1.6,5-2.5,7.9-2.5
		c3,0,5.7,0.9,8,2.5c0,0,0,0,0,0C240.4,5.3,242.8,9.5,242.8,14.3z"/>
</g>
<g>
	<path class="st1" d="M183.7,89.9H137c-7.1,0-12.8-5.8-12.8-12.8c0-3.4,1.3-6.7,3.8-9.1L164,32.1c-1.1-6.7-7-11.9-14-11.9
		c-7.8,0-14.2,6.4-14.2,14.1V38h-11.6l0-3.7c0-14.2,11.6-25.7,25.8-25.7c14.2,0,25.8,11.5,25.8,25.7v2.4l-1.7,1.7l-37.9,37.8
		c-0.2,0.2-0.4,0.5-0.4,0.9c0,0.7,0.6,1.3,1.3,1.3h34.9C174.9,83,179,87,183.7,89.9z"/>
</g>
<path class="st1" d="M117.5,38v14.8c-0.6-0.8-1.2-1.5-1.9-2.2c-0.1-0.1-0.3-0.3-0.4-0.4c-0.2-0.2-0.4-0.4-0.6-0.5
	c-2.4-2.1-5.4-3.6-8.6-4.4V38H117.5z"/>
<g>
	<g>
		<path class="st1" d="M117.5,64.5v25.4h-11.6V64.5c0-2.4-1.9-4.3-4.3-4.3H62.4c-1.2,0-2.4-0.4-3.3-1c-1-0.6-1.7-1.6-2.2-2.7
			c-0.9-2.2-0.4-4.7,1.4-6.4L99.7,8.6h16.4l-40,40h25.5C110.4,48.6,117.5,55.7,117.5,64.5z"/>
	</g>
</g>
<g>
	<path class="st1" d="M237,57.1c0,18.1-14.7,32.8-32.8,32.8c-17.1,0-31.1-13.1-32.7-29.8h11.6c1.5,10.3,10.3,18.3,21,18.3
		c11.7,0,21.3-9.5,21.3-21.3c0-11.7-9.5-21.3-21.3-21.3c-3.3,0-6.5,0.8-9.3,2.1l-8.7-8.8l20.5-20.6H231v11.6h-18.5l-4.4,4.4
		C224.4,26.5,237,40.4,237,57.1z"/>
</g>
<rect class="st2" width="300" height="89.9"/>
</svg>
